<svg width="500" height="500" viewBox="0 0 500 500" fill="none" xmlns="http://www.w3.org/2000/svg">
<circle cx="250" cy="250" r="237.5" stroke="#E9E5E9" stroke-width="25"/>
<path d="M93.0938 264.344C93.0938 254.281 95.0312 245.312 98.9062 237.438C102.781 229.562 108.344 223.469 115.594 219.156C122.906 214.844 131.375 212.688 141 212.688C154.688 212.688 165.844 216.875 174.469 225.25C183.156 233.625 188 245 189 259.375L189.188 266.312C189.188 281.875 184.844 294.375 176.156 303.812C167.469 313.188 155.812 317.875 141.188 317.875C126.562 317.875 114.875 313.188 106.125 303.812C97.4375 294.438 93.0938 281.688 93.0938 265.562V264.344ZM120.188 266.312C120.188 275.938 122 283.312 125.625 288.438C129.25 293.5 134.438 296.031 141.188 296.031C147.75 296.031 152.875 293.531 156.562 288.531C160.25 283.469 162.094 275.406 162.094 264.344C162.094 254.906 160.25 247.594 156.562 242.406C152.875 237.219 147.688 234.625 141 234.625C134.375 234.625 129.25 237.219 125.625 242.406C122 247.531 120.188 255.5 120.188 266.312ZM283.594 214.562L284.438 225.906C291.625 217.094 301.344 212.688 313.594 212.688C326.656 212.688 335.625 217.844 340.5 228.156C347.625 217.844 357.781 212.688 370.969 212.688C381.969 212.688 390.156 215.906 395.531 222.344C400.906 228.719 403.594 238.344 403.594 251.219V316H376.406V251.312C376.406 245.562 375.281 241.375 373.031 238.75C370.781 236.062 366.812 234.719 361.125 234.719C353 234.719 347.375 238.594 344.25 246.344L344.344 316H317.25V251.406C317.25 245.531 316.094 241.281 313.781 238.656C311.469 236.031 307.531 234.719 301.969 234.719C294.281 234.719 288.719 237.906 285.281 244.281V316H258.188V214.562H283.594Z" fill="#E9E5E9"/>
<path d="M233.438 274.094H210.938L207.75 179.5H236.625L233.438 274.094ZM222.188 288.906C226.75 288.906 230.406 290.25 233.156 292.938C235.969 295.625 237.375 299.062 237.375 303.25C237.375 307.375 235.969 310.781 233.156 313.469C230.406 316.156 226.75 317.5 222.188 317.5C217.688 317.5 214.031 316.156 211.219 313.469C208.469 310.781 207.094 307.375 207.094 303.25C207.094 299.125 208.469 295.719 211.219 293.031C214.031 290.281 217.688 288.906 222.188 288.906Z" fill="#FD3F55"/>
</svg>
