<svg width="452" height="636" viewBox="0 0 452 636" fill="none" xmlns="http://www.w3.org/2000/svg">
<path d="M235.251 48.8903L401.149 453.204C403.849 459.784 399.01 467 391.897 467H60.1028C52.9902 467 48.1513 459.784 50.8513 453.204L216.749 48.8902C220.143 40.6183 231.857 40.6183 235.251 48.8903Z" stroke="black" stroke-width="20"/>
<path d="M226.927 133.571L317.607 356.874C317.874 357.531 317.39 358.25 316.681 358.25H135.319C134.61 358.25 134.126 357.531 134.393 356.874L225.073 133.571C225.185 133.296 225.321 133.172 225.435 133.099C225.572 133.012 225.769 132.947 226 132.947C226.231 132.947 226.428 133.012 226.565 133.099C226.679 133.172 226.815 133.296 226.927 133.571Z" stroke="black" stroke-width="10"/>
<line x1="239.19" y1="354.555" x2="72.3401" y2="97.3286" stroke="black" stroke-width="10"/>
<ellipse cx="97.5" cy="134" rx="21.5" ry="22" fill="black"/>
</svg>
